<svg width="187" height="50" viewBox="0 0 187 50" fill="none" xmlns="http://www.w3.org/2000/svg">
<g clip-path="url(#clip0_1_31)">
<path d="M60.1484 10.5756C57.0453 10.5756 54.6078 11.68 52.94 13.0626V11.1675H46.3932V37.4913H52.94V23.9043C52.94 19.8243 55.7544 16.507 59.2102 16.507C63.5802 16.507 64.4982 20.0467 64.4982 23.0144V37.4873H71.0411V22.2516C71.0411 15.2635 66.6631 10.5676 60.1524 10.5676L60.1484 10.5756Z" fill="#006FBC"/>
<path d="M87.2338 21.3736C80.6509 20.4877 80.6509 19.1886 80.6509 18.4099C80.6509 17.373 82.6715 16.2607 85.6823 16.2607C88.9457 16.2607 90.9983 17.528 91.1026 18.7516L91.1827 19.7249H97.6133L97.5532 18.6046C97.3126 13.9525 92.3694 10.5716 85.8066 10.5716C79.2437 10.5716 74.1922 13.8968 74.1922 18.6563C74.1922 24.7426 79.8891 26.284 84.8604 26.9435C90.846 27.7222 91.6558 28.8147 91.6558 29.7801C91.6558 31.246 89.2223 32.3982 86.1112 32.3982C82.4149 32.3982 80.5306 30.9044 80.3422 29.5139L80.2179 28.5922H73.8194L73.8996 29.7284C74.2524 34.7222 79.1074 38.0793 85.983 38.0793C92.8585 38.0793 98.1145 34.5633 98.1145 29.5258C98.1145 24.8777 94.7589 22.3629 87.2378 21.3657L87.2338 21.3736Z" fill="#006FBC"/>
<path d="M157.321 10.5756C154.218 10.5756 151.784 11.68 150.112 13.0626V0.421116H143.57V37.4913H150.112V23.9043C150.112 19.8243 152.923 16.507 156.379 16.507C160.748 16.507 161.667 20.0467 161.667 23.0144V37.4873H168.209V22.2516C168.209 15.2635 163.831 10.5676 157.321 10.5676V10.5756Z" fill="#006FBC"/>
<path d="M132.841 38.548L132.565 39.1996C131.374 42.0123 128.62 43.8319 125.545 43.8319C122.47 43.8319 119.719 42.0123 118.529 39.1996L118.252 38.548H112.178L112.559 39.8988C114.187 45.6514 119.527 49.6719 125.545 49.6719C131.562 49.6719 136.906 45.6554 138.53 39.8988L138.911 38.548H132.837H132.841Z" fill="#006FBC"/>
<path d="M125.464 28.33C127.628 28.33 129.381 26.5922 129.381 24.4486C129.381 22.3049 127.628 20.5672 125.464 20.5672C123.301 20.5672 121.548 22.3049 121.548 24.4486C121.548 26.5922 123.301 28.33 125.464 28.33Z" fill="#F0882C"/>
<path d="M139.059 24.3652C139.059 24.3374 139.063 24.3095 139.063 24.2817C139.063 24.2539 139.063 24.2261 139.059 24.1983V10.3968H132.901V13.0626C130.781 11.6919 128.259 10.8894 125.545 10.8894C118.092 10.8894 112.026 16.8963 112.026 24.2857C112.026 31.6751 118.092 37.682 125.545 37.682C132.998 37.682 138.426 32.271 139.003 25.406H139.055V24.3691L139.059 24.3652ZM132.873 24.2857C132.873 28.2903 129.586 31.548 125.545 31.548C121.503 31.548 118.216 28.2903 118.216 24.2857C118.216 20.2811 121.503 17.0234 125.545 17.0234C129.586 17.0234 132.873 20.2811 132.873 24.2857Z" fill="#006FBC"/>
<path d="M187 17.1466V11.1715H181.58V3.80594H175.033V11.1675H169.613V17.1426H175.033V24.536H175.077C175.506 30.6779 179.599 36.0611 185.541 38.1309L186.972 38.6275V31.7466L186.407 31.4447C183.436 29.8556 181.588 26.7965 181.588 23.4673V22.4026H181.576V17.1386H186.996L187 17.1466Z" fill="#006FBC"/>
<path d="M41.6264 11.1675H35.0835V37.535H41.6264V11.1675Z" fill="#006FBC"/>
<path d="M38.3349 7.88203C40.6281 7.88203 42.352 6.18962 42.352 3.94101C42.352 1.69241 40.6241 0 38.3349 0C36.0457 0 34.3579 1.69241 34.3579 3.94101C34.3579 6.18962 36.0698 7.88203 38.3349 7.88203Z" fill="#006FBC"/>
<path d="M108.057 11.1675H101.514V37.535H108.057V11.1675Z" fill="#006FBC"/>
<path d="M104.766 7.88203C107.059 7.88203 108.783 6.18962 108.783 3.94101C108.783 1.69241 107.055 0 104.766 0C102.476 0 100.789 1.69241 100.789 3.94101C100.789 6.18962 102.5 7.88203 104.766 7.88203Z" fill="#006FBC"/>
<path d="M10.6882 0H0V38.0077H10.6882C23.3129 38.0077 31.4673 30.5588 31.4673 19.0257C31.4673 7.49269 23.3088 0 10.6882 0ZM10.8205 31.5122H6.99987V6.4399H10.8205C19.4641 6.4399 24.4194 11.0285 24.4194 19.0257C24.4194 27.023 19.4641 31.5122 10.8205 31.5122Z" fill="#595757"/>
</g>
<defs>
<clipPath id="clip0_1_31">
<rect width="187" height="49.6719" fill="white"/>
</clipPath>
</defs>
</svg>
